# xmcd CD database file
#
# Track frame offsets:
#	150
#	31647
#	63035
#	79725
#	95145
#	100991
#	109670
#	120907
#	147130
#	155141
#
# Disc length: 2431 seconds
#
# Revision: 0
# Processed by: cddbd v1.5.2PL0 Copyright (c) Steve Scherf et al.
# Submitted via: CDex 1.51
#
DISCID=76097d0a
DTITLE=B.B. KING - Fillmore East, NYC June 19, 1971(Early Show)
DYEAR=1971
DGENRE=Blues
TTITLE0=Let Me Love You
TTITLE1=Walkin' Doctor Bill
TTITLE2=You're So Fine
TTITLE3=Aint That Just Like A Woman
TTITLE4=Instrumental
TTITLE5=Instrumental
TTITLE6=Please Accept My Love
TTITLE7=The Thrill Is Gone
TTITLE8=Instrumental
TTITLE9=Sweet Sixteen
EXTD=YEAR: 1971
EXTT0=
EXTT1=
EXTT2=
EXTT3=
EXTT4=
EXTT5=
EXTT6=
EXTT7=
EXTT8=
EXTT9=
PLAYORDER=
